<svg width="503" height="193" viewBox="0 0 503 193" fill="none" xmlns="http://www.w3.org/2000/svg">
<path d="M28.1069 171.205H32.8201L41.4949 191.875H35.9518L34.1981 187.459H26.5567L24.8343 191.875H19.4321L28.1069 171.205ZM32.8671 183.857L30.3931 177.344L27.919 183.857H32.8827H32.8671Z" fill="#182464"/>
<path d="M54.3506 171.205H68.7094V175.402H59.925V178.878H66.987V183.043H59.925V187.663H68.7094V191.859H54.3506V171.19V171.205Z" fill="#182464"/>
<path d="M81.5025 189.604L82.7395 185.533C84.2897 186.848 86.5288 188.289 89.2534 188.289C90.9445 188.289 92.2442 187.631 92.2442 186.191C92.2442 184.844 91.3516 184.296 88.3922 183.607C83.679 182.495 82.0505 179.99 82.0505 176.921C82.0505 173.163 85.01 170.72 89.6292 170.72C92.3538 170.72 94.7965 171.691 96.4093 172.818L95.2663 176.545C93.7161 175.574 91.5395 174.76 89.5509 174.76C88.0634 174.76 87.1395 175.386 87.1395 176.42C87.1395 177.391 87.7659 177.97 90.099 178.518C95.2663 179.724 97.3645 181.9 97.3645 185.611C97.3645 190.466 93.4342 192.298 89.2378 192.298C85.6833 192.298 83.0996 190.951 81.4868 189.604H81.5025Z" fill="#182464"/>
<path d="M115.043 175.418H108.388V171.221H127.272V175.418H120.617V191.89H115.043V175.418Z" fill="#182464"/>
<path d="M140.19 171.205H145.765V178.612H153.923V171.205H159.513V191.875H153.923V183.325H145.765V191.875H140.19V171.205Z" fill="#182464"/>
<path d="M174.341 171.205H188.7V175.402H179.916V178.878H186.978V183.043H179.916V187.663H188.7V191.859H174.341V171.19V171.205Z" fill="#182464"/>
<path d="M207.616 175.418H200.961V171.221H219.845V175.418H213.19V191.89H207.616V175.418Z" fill="#182464"/>
<path d="M232.763 171.205H238.337V191.875H232.763V171.205Z" fill="#182464"/>
<path d="M252.148 181.54C252.148 174.854 257.316 170.751 263.282 170.751C266.1 170.751 268.825 171.503 270.547 172.818V177.578C268.887 176.169 266.695 175.167 264.205 175.167C260.729 175.167 258.067 177.406 258.067 181.54C258.067 185.674 260.714 187.913 264.205 187.913C266.679 187.913 268.887 186.911 270.547 185.502V190.262C268.825 191.577 266.1 192.329 263.282 192.329C257.316 192.329 252.148 188.226 252.148 181.54Z" fill="#182464"/>
<path d="M299.421 189.604L300.658 185.533C302.208 186.848 304.447 188.289 307.172 188.289C308.863 188.289 310.178 187.631 310.178 186.191C310.178 184.844 309.286 184.296 306.326 183.607C301.613 182.495 299.985 179.99 299.985 176.921C299.985 173.163 302.944 170.72 307.563 170.72C310.288 170.72 312.731 171.691 314.343 172.818L313.2 176.545C311.65 175.574 309.474 174.76 307.485 174.76C305.997 174.76 305.074 175.386 305.074 176.42C305.074 177.391 305.7 177.97 308.033 178.518C313.2 179.724 315.299 181.9 315.299 185.611C315.299 190.466 311.368 192.298 307.172 192.298C303.617 192.298 301.034 190.951 299.421 189.604Z" fill="#182464"/>
<path d="M332.961 175.418H326.307V171.221H345.191V175.418H338.536V191.89H332.961V175.418Z" fill="#182464"/>
<path d="M358.109 182.339V171.205H363.762V182.025C363.762 185.674 365.202 187.647 368.177 187.647C371.152 187.647 372.624 185.69 372.624 182.025V171.205H378.105V182.339C378.105 189.338 373.689 192.47 368.115 192.47C362.54 192.47 358.125 189.338 358.125 182.339H358.109Z" fill="#182464"/>
<path d="M392.949 171.205H401.013C409.516 171.205 413.008 175.856 413.008 181.54C413.008 187.224 409.532 191.875 401.013 191.875H392.949V171.205ZM400.559 187.569C405.21 187.569 407.308 185.674 407.308 181.54C407.308 177.406 405.21 175.512 400.559 175.512H398.524V187.569H400.559Z" fill="#182464"/>
<path d="M426.803 171.205H432.377V191.875H426.803V171.205Z" fill="#182464"/>
<path d="M446.204 181.54C446.204 175.198 451.34 170.61 457.681 170.61C464.023 170.61 469.081 175.198 469.081 181.54C469.081 187.882 463.976 192.454 457.681 192.454C451.387 192.454 446.204 187.866 446.204 181.54ZM463.162 181.54C463.162 177.578 461.126 174.995 457.681 174.995C454.236 174.995 452.138 177.578 452.138 181.54C452.138 185.502 454.205 188.085 457.681 188.085C461.157 188.085 463.162 185.502 463.162 181.54Z" fill="#182464"/>
<path d="M149.632 103.831C148.442 103.048 147.268 101.999 146.501 100.778C144.512 97.5992 144.105 93.2461 143.964 89.5977C143.933 88.7991 143.901 88.0162 143.886 87.2176C143.619 77.4154 143.901 67.5819 143.901 57.7797C143.901 38.5511 133.88 31.865 121.196 31.865C111.848 31.865 104.238 38.0031 99.854 43.2174V0H99.5878C90.5529 2.01994 83.6788 3.10038 71.9506 3.91462V6.21641C75.051 6.21641 79.9051 7.56304 79.9051 15.1104V85.7144C79.9051 96.2369 76.1314 98.2569 70.4631 98.2569V100.684H109.296V98.2569C103.628 98.2569 99.854 96.2369 99.854 85.7144V49.5904C103.268 45.253 108.967 39.6316 114.651 39.6316C122.136 39.6316 124.125 46.9754 124.125 57.7954V70.604C124.125 81.518 121.964 94.3579 130.717 102.657C133.708 105.507 137.56 107.401 141.599 108.169C142.429 108.325 153.563 109.171 153.688 108.31C153.797 107.495 153.719 106.618 153.719 105.789C153.719 105.71 150.008 104.113 149.632 103.847V103.831Z" fill="#182464"/>
<path d="M45.3469 91.696C27.5589 91.696 19.8236 73.767 19.8236 56.8089C19.8236 46.2238 23.6286 36.171 32.0372 36.0301C40.4615 36.0301 43.4522 49.058 43.5775 55.5875C45.0651 57.3569 47.9306 58.4374 51.0466 58.4374C55.8068 58.4374 60.5513 55.9947 60.5513 50.295C60.5513 40.9312 50.3733 31.4265 33.6657 31.4265C13.5759 31.4109 0 44.8615 0 65.3584C0 85.8554 14.5311 101.482 36.7974 101.482C50.3733 101.482 59.878 93.0739 63.1349 89.128L61.0993 87.0924C56.3392 90.2241 51.0466 91.7116 45.3469 91.7116V91.696Z" fill="#182464"/>
<path d="M219.547 85.6987V58.265C219.547 37.5802 206.708 32.0371 191.707 32.0371C172.65 32.0371 163.318 41.0877 163.318 49.0735C163.318 55.4309 168.188 57.4508 173.449 57.4508C176.424 57.4508 179.524 56.7775 181.826 55.8223C181.278 47.8522 183.173 36.8912 191.159 36.8912C197.923 36.8912 199.943 43.1076 199.943 47.9774V49.8095C199.943 65.6245 158.041 61.7725 158.041 84.352C158.041 97.192 167.781 102.187 181.294 102.187C191.566 102.187 197.641 97.3173 200.898 93.935H201.039C202.261 100.151 208.477 101.905 215.1 101.905C221.176 101.905 227.392 100.418 229.694 99.7443L229.553 97.0354C224.276 97.4425 219.547 94.6083 219.547 85.683V85.6987ZM199.677 87.5933C198.048 90.8346 189.781 93.4026 185.6 93.4026C180.73 93.4026 176.142 90.2866 176.142 83.5378C176.142 72.0445 193.836 65.0295 199.646 59.6273L199.677 61.0992V87.5933Z" fill="#182464"/>
<path d="M352.472 92.8546C347.477 92.8546 344.768 89.7385 344.768 80.547V39.1147H358.109L359.048 32.8983H344.627V13.2469L334.089 14.7345C332.742 25.6798 327.606 31.7709 317.334 34.3389V39.3339H324.897V80.1556C324.897 96.6439 334.089 101.921 343.547 101.921C353.004 101.921 360.442 95.5635 363.683 90.5684L361.382 88.2666C359.753 90.0204 356.246 92.8702 352.456 92.8702L352.472 92.8546Z" fill="#182464"/>
<path d="M489.609 31.7711C482.453 31.7711 474.874 37.1733 469.065 44.752L468.799 44.8929L468.125 31.3796H467.859C460.296 33.9476 451.919 36.1085 441.772 36.6565V39.0836C444.747 39.0836 449.476 40.4302 449.476 47.7271V85.7145C449.476 96.2527 445.687 98.2883 440.018 98.2883V100.715H478.945V98.2883C473.261 98.2883 469.488 96.2683 469.488 85.7145V57.4666C469.488 50.5769 474.483 44.4858 480.026 44.4858C485.569 44.4858 488.2 49.1833 488.434 52.6908C488.481 53.4894 489.029 54.1627 489.812 54.3506C490.893 54.6168 491.911 54.7577 492.866 54.7577C498.55 54.7577 502.872 50.2951 502.997 44.752C503.138 38.3946 498.534 31.7711 489.624 31.7711H489.609Z" fill="#182464"/>
<path d="M491.274 100.835C490.209 100.835 489.441 100.417 489 100.039L489.298 99.0134C489.722 99.4202 490.398 99.8785 491.274 99.8785C491.916 99.8785 492.403 99.5577 492.403 98.9905C492.403 98.4577 492.105 98.177 491.057 97.9249C489.71 97.5926 489.178 96.8822 489.178 95.9599C489.178 94.9172 490.008 94.1553 491.389 94.1553C492.18 94.1553 492.884 94.4532 493.308 94.7855L493.027 95.6906C492.581 95.3927 491.939 95.1349 491.372 95.1349C490.742 95.1349 490.369 95.4156 490.369 95.874C490.369 96.2463 490.593 96.5328 491.469 96.7448C492.964 97.1171 493.6 97.7473 493.6 98.8587C493.6 100.234 492.466 100.835 491.263 100.835" fill="#182464"/>
<path d="M501.414 100.709V96.7791C501.414 96.6301 501.449 96.2119 501.46 96.1718L501.225 96.7791L499.507 100.709H498.705L496.986 96.7791C496.923 96.6301 496.78 96.2348 496.762 96.1718C496.762 96.2062 496.797 96.6301 496.797 96.7791V100.709H495.657V94.3042H497.043L499.157 98.9905L501.26 94.3042H502.606V100.709H501.42H501.414Z" fill="#182464"/>
<path d="M414.918 91.9152C402.767 91.9152 394.922 83.6789 391.696 72.4674L432.095 58.5784C432.095 58.5784 431.704 55.5563 431.391 54.1C429.089 42.4815 418.958 31.959 402.892 31.959C383.319 31.959 369.806 45.3313 369.806 65.7186C369.806 86.106 384.259 101.639 407.48 101.639C421.933 101.639 429.355 93.2619 432.596 89.3473L430.561 87.3116C425.832 90.412 420.571 91.8996 414.902 91.8996L414.918 91.9152ZM389.535 57.2161C389.535 46.6779 393.309 36.5626 401.42 36.5626C409.531 36.5626 413.571 49.3869 414.244 59.7841L390.475 68.0204C389.802 64.372 389.535 60.7236 389.535 57.2161Z" fill="#182464"/>
<path d="M301.425 39.9918C297.793 35.5604 292.453 32.7263 286.863 31.4736C283.45 30.7063 279.864 30.3618 276.356 30.5967C270.61 30.9725 265.082 32.8985 260.807 37.048C259.931 37.8935 260.87 32.9611 259.649 32.8515C251.6 32.1625 241.093 33.1177 232.967 33.1177V35.2786C236.083 35.4195 240.984 37.1733 240.984 44.611V117.141C240.984 119.271 240.984 121.15 240.984 122.794C240.968 123.263 240.921 123.702 240.89 124.14C240.89 124.234 240.89 124.328 240.874 124.422C240.843 124.814 240.78 125.174 240.733 125.534C240.718 125.644 240.702 125.769 240.686 125.894C240.639 126.223 240.561 126.536 240.498 126.834C240.467 126.959 240.451 127.084 240.42 127.209C240.357 127.491 240.279 127.757 240.201 128.008C240.17 128.133 240.123 128.243 240.091 128.368C240.013 128.603 239.919 128.838 239.825 129.057C239.778 129.167 239.731 129.276 239.684 129.386C239.59 129.59 239.481 129.777 239.387 129.965C239.324 130.075 239.277 130.169 239.214 130.263C239.105 130.435 238.995 130.592 238.886 130.748C238.823 130.842 238.745 130.936 238.682 131.014C238.557 131.155 238.447 131.296 238.322 131.422C238.244 131.5 238.165 131.578 238.071 131.656C237.946 131.766 237.821 131.891 237.68 131.985C237.586 132.048 237.492 132.126 237.398 132.189C237.257 132.283 237.132 132.377 236.991 132.455C236.881 132.518 236.772 132.565 236.678 132.627C236.537 132.706 236.396 132.768 236.255 132.831C236.13 132.878 236.02 132.925 235.895 132.972C235.754 133.019 235.597 133.081 235.456 133.128C235.315 133.175 235.19 133.207 235.049 133.238C234.908 133.269 234.752 133.316 234.611 133.348C234.454 133.379 234.298 133.395 234.125 133.426C233.984 133.441 233.844 133.473 233.703 133.488C233.515 133.504 233.311 133.52 233.108 133.535C232.982 133.535 232.873 133.551 232.747 133.567C232.419 133.582 232.09 133.598 231.745 133.598V135.994H270.14V133.598C268.042 133.598 266.21 133.316 264.722 132.424C263.485 131.672 262.514 130.498 261.841 128.697C261.168 126.896 260.807 124.469 260.807 121.212V107.762C260.807 106.697 260.823 105.71 260.854 105.726V100.637C278.032 101.702 297.793 93.3715 305.481 77.3842C308.707 70.6667 309.787 63.0097 308.973 55.6033C308.346 50.0132 305.043 44.4231 301.472 40.0701L301.425 39.9918ZM260.807 95.8299V41.7612C260.807 40.4772 264.158 37.3925 270.093 37.3925C278.204 37.3925 289.353 41.9021 289.353 60.9585C289.353 82.7237 273.365 95.9551 260.807 95.8142V95.8299Z" fill="#182464"/>
</svg>
